<?xml version="1.0" standalone="no"?>
<!DOCTYPE svg PUBLIC "-//W3C//DTD SVG 20010904//EN"
 "http://www.w3.org/TR/2001/REC-SVG-20010904/DTD/svg10.dtd">
<svg version="1.0" xmlns="http://www.w3.org/2000/svg"
 width="260.000000pt" height="260.000000pt" viewBox="0 0 260.000000 260.000000"
 preserveAspectRatio="xMidYMid meet">
<metadata>
Created by potrace 1.14, written by Peter Selinger 2001-2017
</metadata>
<g transform="translate(0.000000,260.000000) scale(0.100000,-0.100000)"
fill="#000000" stroke="none">
<path d="M500 2584 c-234 -50 -436 -254 -485 -489 -22 -104 -22 -1486 0 -1590
50 -238 252 -440 490 -490 104 -22 1486 -22 1590 0 238 50 440 252 490 490 22
104 22 1486 0 1590 -50 238 -252 440 -490 490 -101 21 -1497 21 -1595 -1z
m1601 -682 c116 -46 184 -138 195 -263 11 -114 -34 -217 -116 -266 l-29 -17
53 -33 c29 -18 66 -51 81 -73 93 -134 62 -349 -66 -464 -101 -92 -199 -108
-619 -104 l-285 3 -3 623 -2 623 367 -3 c354 -3 370 -4 424 -26z m-1573 -494
l2 -508 308 -2 307 -3 3 -112 3 -113 -446 0 -445 0 0 625 0 626 133 -3 132 -3
3 -507z"/>
<path d="M1562 1578 l3 -133 190 0 c208 0 236 6 272 61 24 37 22 117 -4 152
-32 44 -71 51 -276 51 l-188 1 3 -132z"/>
<path d="M1562 1068 l3 -163 195 0 c177 0 198 2 229 20 54 32 75 67 79 138 3
53 0 67 -20 97 -41 60 -60 65 -286 68 l-203 3 3 -163z"/>
</g>
</svg>
