<?xml version="1.0" encoding="utf-8"?>
<!-- Generator: Adobe Illustrator 26.0.0, SVG Export Plug-In . SVG Version: 6.00 Build 0)  -->
<svg version="1.1" id="Livello_1" xmlns="http://www.w3.org/2000/svg" xmlns:xlink="http://www.w3.org/1999/xlink" x="0px" y="0px"
	 viewBox="0 0 512 512" style="enable-background:new 0 0 512 512;" xml:space="preserve">
<style type="text/css">
	.st0{fill-rule:evenodd;clip-rule:evenodd;fill:#9CA3AF;}
	.st1{fill:#9CA3AF;}
</style>
<g>
	<g>
		<g>
			<g>
				<path class="st0" d="M299.4,299.2v-17.7c0-29.4,23.8-53.2,53.2-53.2H388c29.4,0,53.2,23.8,53.2,53.2v17.7h35.5
					c19.6,0,35.5,15.9,35.5,35.5v63.3c-44.1,16.4-91.9,25.3-141.8,25.3s-97.6-9-141.8-25.3v-63.3c0-19.6,15.9-35.5,35.4-35.5
					L299.4,299.2L299.4,299.2z M334.9,281.4c0-9.8,7.9-17.7,17.7-17.7h35.5c9.8,0,17.7,7.9,17.7,17.7v17.7h-70.9L334.9,281.4
					L334.9,281.4z M352.6,370c0-9.8,7.9-17.7,17.7-17.7h0.2c9.8,0,17.7,7.9,17.7,17.7c0,9.8-7.9,17.7-17.7,17.7h-0.2
					C360.5,387.8,352.6,379.8,352.6,370z"/>
				<path class="st1" d="M228.5,435.5v40.9c0,19.6,15.9,35.5,35.4,35.5h212.7c19.6,0,35.5-15.9,35.5-35.5v-40.9
					c-44.5,15-92.2,23.2-141.8,23.2C320.8,458.7,273.1,450.5,228.5,435.5z"/>
			</g>
		</g>
		<g>
			<g>
				<path class="st1" d="M159.5,1.7c-4.8-2-10.2-2-15,0L11.4,58.8c-7,3-11.5,9.9-11.5,17.5s4.5,14.5,11.5,17.5l50.3,21.6
					c1.8-2.1,4.1-3.8,6.8-4.9l76.1-32.6c9.6-4.1,20.8,0.3,25,10c4.1,9.7-0.3,20.8-10,25L107.7,135l36.9,15.8c4.8,2.1,10.2,2.1,15,0
					l133.1-57.1c7-3,11.5-9.9,11.5-17.5s-4.5-14.5-11.5-17.5L159.5,1.7z"/>
				<path class="st1" d="M24.8,140.8l32.1,13.8v78c-6.5-1.5-13.2-2.6-20-3.3c-8.9-0.9-16-8-16.9-16.9c-0.8-7.2-1.1-14.6-1.1-22.1
					C18.9,173.3,20.9,156.7,24.8,140.8z"/>
				<path class="st1" d="M138.7,277.3c-12.8-12.5-27.5-23.1-43.7-31.1v-75.3l34.6,14.8c14.4,6.1,30.6,6.1,44.9,0l104.8-44.9
					c3.9,15.9,5.9,32.5,5.9,49.5c0,7.4-0.4,14.8-1.1,22.1c-0.9,8.9-8,16-16.9,16.9c-39.4,4.1-74.9,21.6-101.7,48
					C157.9,284.5,146.1,284.5,138.7,277.3z"/>
				<path class="st1" d="M76,304.5c10.5,0,19-8.5,19-19v-39.3c-12-5.9-24.7-10.5-38-13.6v52.8C56.9,295.9,65.4,304.5,76,304.5z"/>
			</g>
		</g>
	</g>
</g>
</svg>
